<?xml version="1.0" encoding="UTF-8"?>
<!DOCTYPE svg PUBLIC "-//W3C//DTD SVG 1.1//EN" "http://www.w3.org/Graphics/SVG/1.1/DTD/svg11.dtd">
<svg xmlns="http://www.w3.org/2000/svg" version="1.1" width="75px" height="83px" style="shape-rendering:geometricPrecision; text-rendering:geometricPrecision; image-rendering:optimizeQuality; fill-rule:evenodd; clip-rule:evenodd" xmlns:xlink="http://www.w3.org/1999/xlink">
<g><path style="opacity:0.449" fill="#2e2e2e" d="M 25.5,-0.5 C 26.5,-0.5 27.5,-0.5 28.5,-0.5C 26.7739,1.82007 26.1072,4.48674 26.5,7.5C 18.16,7.3336 9.82667,7.50027 1.5,8C 0.955796,8.71719 0.28913,9.21719 -0.5,9.5C -0.5,8.5 -0.5,7.5 -0.5,6.5C 7.41438,5.53281 15.4144,5.19947 23.5,5.5C 23.6036,3.29719 24.2702,1.29719 25.5,-0.5 Z"/></g>
<g><path style="opacity:1" fill="#fbfbfb" d="M 28.5,-0.5 C 34.1667,-0.5 39.8333,-0.5 45.5,-0.5C 47.9844,1.54517 48.9844,4.21184 48.5,7.5C 56.5069,7.33362 64.5069,7.50029 72.5,8C 73.0442,8.71719 73.7109,9.21719 74.5,9.5C 74.5,11.5 74.5,13.5 74.5,15.5C 73.6906,16.4687 72.6906,17.3021 71.5,18C 48.5,18.6667 25.5,18.6667 2.5,18C 1.30943,17.3021 0.309426,16.4687 -0.5,15.5C -0.5,13.5 -0.5,11.5 -0.5,9.5C 0.28913,9.21719 0.955796,8.71719 1.5,8C 9.82667,7.50027 18.16,7.3336 26.5,7.5C 26.1072,4.48674 26.7739,1.82007 28.5,-0.5 Z"/></g>
<g><path style="opacity:0.451" fill="#2a2a2a" d="M 45.5,-0.5 C 46.5,-0.5 47.5,-0.5 48.5,-0.5C 49.7298,1.29719 50.3964,3.29719 50.5,5.5C 58.5856,5.19947 66.5856,5.53281 74.5,6.5C 74.5,7.5 74.5,8.5 74.5,9.5C 73.7109,9.21719 73.0442,8.71719 72.5,8C 64.5069,7.50029 56.5069,7.33362 48.5,7.5C 48.9844,4.21184 47.9844,1.54517 45.5,-0.5 Z"/></g>
<g><path style="opacity:0.42" fill="#2b2b2b" d="M -0.5,15.5 C 0.309426,16.4687 1.30943,17.3021 2.5,18C 25.5,18.6667 48.5,18.6667 71.5,18C 72.6906,17.3021 73.6906,16.4687 74.5,15.5C 74.5,16.8333 74.5,18.1667 74.5,19.5C 49.5,20.8333 24.5,20.8333 -0.5,19.5C -0.5,18.1667 -0.5,16.8333 -0.5,15.5 Z"/></g>
<g><path style="opacity:0.394" fill="#323232" d="M 60.5,82.5 C 44.8333,82.5 29.1667,82.5 13.5,82.5C 9.27943,81.0965 7.11276,78.0965 7,73.5C 5.12225,56.5152 3.78892,39.5152 3,22.5C 14.2595,21.8385 25.5928,21.5051 37,21.5C 48.4072,21.5051 59.7405,21.8385 71,22.5C 70.2373,41.223 68.5707,59.8896 66,78.5C 64.5002,80.4687 62.6669,81.802 60.5,82.5 Z"/></g>
<g><path style="opacity:1" fill="#fdfdfd" d="M 4.5,23.5 C 26.1667,23.5 47.8333,23.5 69.5,23.5C 68.0258,39.8296 66.5258,56.1629 65,72.5C 64.6401,74.6079 63.9734,76.6079 63,78.5C 54.4087,79.1598 45.742,79.4932 37,79.5C 28.258,79.4932 19.5913,79.1598 11,78.5C 10.0266,76.6079 9.35989,74.6079 9,72.5C 7.47416,56.1629 5.97416,39.8296 4.5,23.5 Z"/></g>
</svg>
